<?xml version="1.0" encoding="UTF-8"?>
<svg version="1.1" xmlns="http://www.w3.org/2000/svg" width="500" height="500">
<path d="M0 0 C0.69609375 0.37769531 1.3921875 0.75539062 2.109375 1.14453125 C8.8286163 5.45474224 12.22488576 12.18099439 16 19 C16.46970215 19.84224121 16.9394043 20.68448242 17.42333984 21.55224609 C20.65073363 27.34916172 23.83972317 33.16624783 27 39 C26.95359375 37.81664062 26.9071875 36.63328125 26.859375 35.4140625 C26.52029369 23.32485407 27.2214909 15.19265333 35.25 5.625 C40.88636666 -0.28993503 46.88774365 -3.60724479 55.1015625 -4.23828125 C65.09579885 -4.44880286 72.38738843 -3.19159996 80.25 3.1875 C87.63667021 10.31004377 92.1851464 19.71408136 97.0625 28.625 C98.3927536 31.04004422 99.72584745 33.45351822 101.05859375 35.8671875 C101.39149414 36.47099243 101.72439453 37.07479736 102.06738281 37.69689941 C105.21533561 43.40285249 108.41225902 49.08034131 111.625 54.75 C112.41692749 56.14822998 112.41692749 56.14822998 113.22485352 57.57470703 C114.28535741 59.44645177 115.34614674 61.31803481 116.40722656 63.18945312 C118.02078969 66.03668469 119.6319463 68.88526354 121.2421875 71.734375 C121.78029053 72.68642822 122.31839355 73.63848145 122.87280273 74.61938477 C123.95112905 76.52833784 125.02877424 78.43767584 126.10571289 80.34741211 C128.90686691 85.31179993 131.72395467 90.2661566 134.56640625 95.20703125 C135.15164063 96.22925781 135.736875 97.25148438 136.33984375 98.3046875 C137.45048325 100.24389933 138.56600813 102.18032532 139.6875 104.11328125 C146.35702359 115.78919022 150.5808718 126.22703514 147.3046875 139.90234375 C144.02945539 148.83354391 139.0009342 155.22015269 130.63671875 159.80859375 C122.00942201 163.70685376 112.79320946 164.09804202 103.8828125 160.87109375 C92.60620045 155.71084859 87.41513549 147.68377744 81.8125 136.9375 C80.79868713 135.02967679 79.78437525 133.12211866 78.76953125 131.21484375 C78.29854004 130.32265137 77.82754883 129.43045898 77.34228516 128.51123047 C75.62637099 125.30099163 73.82885923 122.14703462 72 119 C72.16048828 120.19882812 72.16048828 120.19882812 72.32421875 121.421875 C73.52619154 132.43349667 72.40784193 141.91304766 65.734375 151.03125 C59.14481026 158.51129647 50.88380485 162.39773562 40.9765625 163.06640625 C31.6815774 162.85903782 24.43590687 159.88141851 17.5 153.8125 C9.71440821 145.05370924 4.57612756 134.23062217 -1 124 C-0.95359375 125.03898438 -0.9071875 126.07796875 -0.859375 127.1484375 C-0.50895654 138.20121991 -1.48929553 146.05638847 -8.75 154.875 C-15.41401565 161.87221644 -23.80057212 164.92548446 -33.375 165.3125 C-42.25127176 165.05322746 -50.34800548 161.888247 -57 156 C-64.15464241 147.72573798 -66.52921709 140.22096114 -66.3046875 129.34375 C-65.42925493 119.73643869 -61.3407777 112.23840836 -54 106 C-45.1801026 100.46438872 -37.34222396 99.15954839 -27 100 C-20.20331779 101.58302472 -14.99262254 104.14231321 -10 109 C-10.36931641 108.32412842 -10.73863281 107.64825684 -11.11914062 106.9519043 C-13.66310676 102.29268042 -16.20215556 97.63110433 -18.71875 92.95703125 C-24.09214204 83.0052016 -29.62053962 73.17446568 -35.375 63.4375 C-52.26717779 34.78589945 -52.26717779 34.78589945 -47.9375 17.8125 C-44.81983897 8.7785334 -38.40621909 2.33823489 -30 -2 C-20.07273302 -5.95189424 -9.29005147 -5.14850754 0 0 Z M28 40 C29 42 29 42 29 42 Z M70 116 C71 118 71 118 71 118 Z " fill="#218693" transform="translate(210,172)"/>
<path d="M0 0 C9.30039191 4.75172862 14.69308384 13.82741939 19.3125 22.8125 C20.3496467 24.77054722 21.38875897 26.72755439 22.4296875 28.68359375 C22.95014648 29.6669873 23.47060547 30.65038086 24.00683594 31.66357422 C26.39703711 36.11763083 28.91150673 40.4969478 31.4375 44.875 C35.86610599 52.57476854 40.23242336 60.30689114 44.5625 68.0625 C48.96172901 75.93893859 53.39064958 83.79669408 57.875 91.625 C65.26891444 104.53897001 65.26891444 104.53897001 68.75 110.6875 C69.31231323 111.67375366 69.31231323 111.67375366 69.88598633 112.67993164 C74.32173068 120.53666644 74.56815944 128.70977589 73.5625 137.5625 C72.40229604 141.32620166 70.80552501 144.34058257 68.5625 147.5625 C67.94375 148.490625 67.325 149.41875 66.6875 150.375 C60.08269346 157.17406556 52.63294643 160.59768915 43.125 161 C34.43833235 160.70882678 27.99109865 157.50986684 21.61254883 151.76000977 C17.75432458 147.62426171 15.20483804 142.74669753 12.5 137.8125 C11.86006104 136.67506348 11.22012207 135.53762695 10.56079102 134.36572266 C8.8768395 131.37129067 7.21184283 128.36679987 5.55322266 125.35827637 C3.95824763 122.46723673 2.35343715 119.58166502 0.75 116.6953125 C-1.12873322 113.31154238 -3.00583155 109.92693918 -4.87670898 106.53881836 C-8.99999002 99.0865412 -13.24003246 91.71326848 -17.5625 84.375 C-22.33355492 76.26400451 -26.95581323 68.08712947 -31.4375 59.8125 C-31.95328613 58.86093018 -32.46907227 57.90936035 -33.00048828 56.92895508 C-34.49578079 54.14847059 -35.96737816 51.35635954 -37.4375 48.5625 C-38.271604 47.02746826 -38.271604 47.02746826 -39.12255859 45.46142578 C-44.0249507 36.18008539 -45.18233143 29.1234362 -42.76953125 18.66796875 C-39.83601232 10.32857652 -34.10705836 3.89746777 -26.4375 -0.4375 C-18.23965033 -4.35758867 -8.13141171 -3.73465602 0 0 Z " fill="#1B8091" transform="translate(282.4375,172.4375)"/>
<path d="M0 0 C5.82577654 4.21940433 10.00450595 10.09049197 12 17 C13.24420732 25.46569682 13.21504972 34.37889584 8.66796875 41.85546875 C2.86783613 49.31278212 -3.70138801 53.9894893 -13 56 C-22.10318803 57.13200266 -29.57069537 55.59727213 -37.22265625 50.52734375 C-43.42803184 45.62103744 -46.53205028 39.40384915 -49 32 C-50.05449477 21.97562564 -48.81010522 14.33731516 -43 6 C-31.67117748 -7.13383407 -14.75888164 -8.65327287 0 0 Z " fill="#177D90" transform="translate(195,279)"/>
<path d="M0 0 C0.69609375 0.37769531 1.3921875 0.75539062 2.109375 1.14453125 C8.8286163 5.45474224 12.22488576 12.18099439 16 19 C16.46970215 19.84224121 16.9394043 20.68448242 17.42333984 21.55224609 C20.65073363 27.34916172 23.83972317 33.16624783 27 39 C26.95359375 37.81664062 26.9071875 36.63328125 26.859375 35.4140625 C26.52029369 23.32485407 27.2214909 15.19265333 35.25 5.625 C40.88636666 -0.28993503 46.88774365 -3.60724479 55.1015625 -4.23828125 C65.09579885 -4.44880286 72.38738843 -3.19159996 80.25 3.1875 C87.63667021 10.31004377 92.1851464 19.71408136 97.0625 28.625 C98.3927536 31.04004422 99.72584745 33.45351822 101.05859375 35.8671875 C101.39149414 36.47099243 101.72439453 37.07479736 102.06738281 37.69689941 C105.21533561 43.40285249 108.41225902 49.08034131 111.625 54.75 C112.41692749 56.14822998 112.41692749 56.14822998 113.22485352 57.57470703 C114.28535741 59.44645177 115.34614674 61.31803481 116.40722656 63.18945312 C118.02078969 66.03668469 119.6319463 68.88526354 121.2421875 71.734375 C121.78029053 72.68642822 122.31839355 73.63848145 122.87280273 74.61938477 C123.95112905 76.52833784 125.02877424 78.43767584 126.10571289 80.34741211 C128.90686691 85.31179993 131.72395467 90.2661566 134.56640625 95.20703125 C135.15164063 96.22925781 135.736875 97.25148438 136.33984375 98.3046875 C137.45048325 100.24389933 138.56600813 102.18032532 139.6875 104.11328125 C146.35702359 115.78919022 150.5808718 126.22703514 147.3046875 139.90234375 C144.02945539 148.83354391 139.0009342 155.22015269 130.63671875 159.80859375 C122.00942201 163.70685376 112.79320946 164.09804202 103.8828125 160.87109375 C92.60620045 155.71084859 87.41513549 147.68377744 81.8125 136.9375 C80.79868713 135.02967679 79.78437525 133.12211866 78.76953125 131.21484375 C78.29854004 130.32265137 77.82754883 129.43045898 77.34228516 128.51123047 C75.62637099 125.30099163 73.82885923 122.14703462 72 119 C72.16048828 120.19882812 72.16048828 120.19882812 72.32421875 121.421875 C73.52619154 132.43349667 72.40784193 141.91304766 65.734375 151.03125 C59.14481026 158.51129647 50.88380485 162.39773562 40.9765625 163.06640625 C31.6815774 162.85903782 24.43590687 159.88141851 17.5 153.8125 C9.71440821 145.05370924 4.57612756 134.23062217 -1 124 C-0.95359375 125.03898438 -0.9071875 126.07796875 -0.859375 127.1484375 C-0.50895654 138.20121991 -1.48929553 146.05638847 -8.75 154.875 C-15.41401565 161.87221644 -23.80057212 164.92548446 -33.375 165.3125 C-42.25127176 165.05322746 -50.34800548 161.888247 -57 156 C-64.15464241 147.72573798 -66.52921709 140.22096114 -66.3046875 129.34375 C-65.42925493 119.73643869 -61.3407777 112.23840836 -54 106 C-45.1801026 100.46438872 -37.34222396 99.15954839 -27 100 C-20.20331779 101.58302472 -14.99262254 104.14231321 -10 109 C-10.36931641 108.32412842 -10.73863281 107.64825684 -11.11914062 106.9519043 C-13.66310676 102.29268042 -16.20215556 97.63110433 -18.71875 92.95703125 C-24.09214204 83.0052016 -29.62053962 73.17446568 -35.375 63.4375 C-52.26717779 34.78589945 -52.26717779 34.78589945 -47.9375 17.8125 C-44.81983897 8.7785334 -38.40621909 2.33823489 -30 -2 C-20.07273302 -5.95189424 -9.29005147 -5.14850754 0 0 Z M-39.5625 7.5625 C-40.40253878 8.68829977 -41.21892104 9.83252155 -42 11 C-42.86625 12.2375 -42.86625 12.2375 -43.75 13.5 C-48.33114347 22.66228695 -47.99923373 31.83176013 -44.98364258 41.38305664 C-43.351813 45.72447666 -41.06936485 49.59570858 -38.6875 53.5625 C-37.60549937 55.40941196 -36.52482613 57.25710205 -35.4453125 59.10546875 C-34.88102539 60.06630371 -34.31673828 61.02713867 -33.73535156 62.01708984 C-30.77858753 67.09949599 -27.92417586 72.23864849 -25.0625 77.375 C-20.03841268 86.3687025 -14.98744953 95.34655816 -9.90795898 104.30908203 C-7.02615948 109.39863748 -4.1621329 114.4973733 -1.3203125 119.609375 C-0.70349609 120.71732422 -0.08667969 121.82527344 0.54882812 122.96679688 C1.72484225 125.08110677 2.89822889 127.19688135 4.06835938 129.31445312 C14.74523281 149.26917808 14.74523281 149.26917808 33.375 160.75 C42.96157977 161.6630076 50.42603513 160.95515247 58.48828125 155.234375 C63.49125364 151.07478421 66.68775378 147.06804947 69 141 C69.4125 140.071875 69.825 139.14375 70.25 138.1875 C73.67486092 123.63184108 66.40732669 112.49823284 59.5 100.1875 C58.77972642 98.89376854 58.05984214 97.59982028 57.34033203 96.30566406 C52.76280244 88.08643655 48.12513222 79.90163717 43.43505859 71.74609375 C39.6089852 65.09070927 35.86181315 58.39333039 32.125 51.6875 C27.32078137 43.08344762 22.45276673 34.5194733 17.5 26 C16.93684082 25.02764404 16.37368164 24.05528809 15.79345703 23.0534668 C9.69029334 11.45649008 9.69029334 11.45649008 0.5 2.5625 C-0.2115625 2.11003906 -0.923125 1.65757812 -1.65625 1.19140625 C-14.43219345 -5.30303167 -29.84645065 -3.32329485 -39.5625 7.5625 Z M34 10 C28.88907723 18.32083158 27.4477225 27.3454788 29 37 C30.6852231 41.81492314 33.01214805 46.07530032 35.55712891 50.48486328 C37.22668081 53.39513801 38.83862962 56.33403491 40.44921875 59.27734375 C46.68394406 70.63763869 53.06037896 81.91710593 59.51513672 93.15380859 C62.75298225 98.79549279 65.94283877 104.4621149 69.10864258 110.14453125 C71.45985086 114.36143224 73.82422973 118.57085448 76.19140625 122.77880859 C77.41700242 124.96165361 78.63822563 127.14695864 79.85546875 129.33447266 C81.68024359 132.60673005 83.52527964 135.8667931 85.375 139.125 C85.92140137 140.11411377 86.46780273 141.10322754 87.03076172 142.12231445 C91.98579929 150.76932615 97.83484714 156.96914194 107.36328125 160.33984375 C116.92268406 162.73323497 124.90981007 160.61137578 133.2265625 155.6796875 C139.65274176 151.27522756 143.56544393 145.36663086 146 138 C147.72178648 124.8325673 144.62629509 116.18656847 138 105 C137.09284843 103.4043317 136.18934816 101.80658338 135.2890625 100.20703125 C133.30049027 96.68651938 131.29061859 93.17937059 129.265625 89.6796875 C125.82313102 83.7167218 122.47365406 77.70350448 119.125 71.6875 C113.91019337 62.33254026 108.56416404 53.06379744 103.12084961 43.84008789 C99.67114089 37.96494691 96.38948151 32.02841431 93.21118164 26.00244141 C84.45678419 9.20125553 84.45678419 9.20125553 69.08984375 -1.21875 C55.24397555 -4.71960163 42.79634929 -1.36974934 34 10 Z M28 40 C29 42 29 42 29 42 Z M-58.59765625 113.88671875 C-64.00449993 122.03463638 -65.08992174 129.21294763 -64 139 C-61.92472881 147.58089662 -57.34843261 153.98833813 -50 158.8125 C-41.99080991 163.38918005 -34.15749608 164.3076403 -25.09375 162.3828125 C-16.37247162 159.61454155 -9.70540197 154.40215955 -4.9375 146.5625 C-1.47820031 138.76400906 -1.54026913 129.05439851 -3.88671875 120.9296875 C-8.05523267 111.87251772 -14.40799937 106.36755642 -23.69140625 102.890625 C-37.03692141 99.2982077 -50.02039925 102.75096455 -58.59765625 113.88671875 Z M70 116 C71 118 71 118 71 118 Z " fill="#F1F7F8" transform="translate(210,172)"/>
<path d="M0 0 C0.66 0.33 1.32 0.66 2 1 C1.58427734 1.87398437 1.58427734 1.87398437 1.16015625 2.765625 C-1.82527736 9.52269183 -2.74723559 15.64455576 -3 23 C-3.66 23 -4.32 23 -5 23 C-5.4581163 14.76663214 -5.34330077 8.18650569 -1 1 C-0.67 0.67 -0.34 0.34 0 0 Z " fill="#E4F1F1" transform="translate(242,183)"/>
<path d="M0 0 C1.41548199 2.77434469 2.70359625 5.57821301 3.9375 8.4375 C5.41093398 11.79273542 7.09984635 14.86474648 9 18 C9 18.66 9 19.32 9 20 C5.87162693 18.94357772 5.00913549 18.0150479 3.26171875 15.13671875 C2.74222656 13.99847656 2.22273437 12.86023438 1.6875 11.6875 C1.15511719 10.55699219 0.62273437 9.42648438 0.07421875 8.26171875 C-1.03636758 4.88957481 -1.06762741 3.32775094 0 0 Z " fill="#EDF5F6" transform="translate(163,206)"/>
<path d="M0 0 C3.36696012 1.05776181 4.08522227 2.14446213 5.921875 5.2578125 C6.54360668 6.54096087 7.15265262 7.83032007 7.75 9.125 C8.22373047 10.11306641 8.22373047 10.11306641 8.70703125 11.12109375 C9.48233745 12.74218853 10.24265686 14.37043584 11 16 C7.63303988 14.94223819 6.91477773 13.85553787 5.078125 10.7421875 C4.45639332 9.45903913 3.84734738 8.16967993 3.25 6.875 C2.77626953 5.88693359 2.77626953 5.88693359 2.29296875 4.87890625 C1.51766255 3.25781147 0.75734314 1.62956416 0 0 Z " fill="#F3F8F9" transform="translate(213,302)"/>
<path d="M0 0 C0.66 0.33 1.32 0.66 2 1 C-1.52127761 5.5929708 -5.57747597 6.11941917 -11 7 C-11.33 6.34 -11.66 5.68 -12 5 C-10.82630859 4.58427734 -10.82630859 4.58427734 -9.62890625 4.16015625 C-8.61699219 3.79792969 -7.60507813 3.43570312 -6.5625 3.0625 C-5.55316406 2.70285156 -4.54382813 2.34320313 -3.50390625 1.97265625 C-1.09686255 1.23122361 -1.09686255 1.23122361 0 0 Z " fill="#ECF4F5" transform="translate(194,329)"/>
<path d="M0 0 C0.66 0 1.32 0 2 0 C1.74337755 1.44010481 1.46909179 2.8770687 1.1875 4.3125 C1.03667969 5.11300781 0.88585937 5.91351563 0.73046875 6.73828125 C-0.07572236 9.23445587 -1.02052002 10.32422106 -3 12 C-3 8.98509443 -2.48047265 7.13135886 -1.5 4.3125 C-1.2215625 3.50425781 -0.943125 2.69601562 -0.65625 1.86328125 C-0.4396875 1.24839844 -0.223125 0.63351562 0 0 Z " fill="#EDF4F6" transform="translate(280,307)"/>
<path d="M0 0 C-1.50223584 4.20626034 -4.28550034 5.73900021 -8 8 C-8 7.01 -8 6.02 -8 5 C-2.65116279 0 -2.65116279 0 0 0 Z " fill="#F9FBFB" transform="translate(178,172)"/>
<path d="M0 0 C1.96301592 3.50538557 2.95902388 7.13351728 4 11 C3.01 10.67 2.02 10.34 1 10 C-1.28070175 3.84210526 -1.28070175 3.84210526 0 0 Z " fill="#DFEEEF" transform="translate(163,206)"/>
<path d="M0 0 C0.99 0.33 1.98 0.66 3 1 C0.31158141 3.25245881 -1.64641875 4.88213958 -5 6 C-3.63016497 2.83884224 -3.0109362 2.0072908 0 0 Z " fill="#EEF5F6" transform="translate(161,275)"/>
</svg>
