<?xml version="1.0" encoding="UTF-8"?>
<svg version="1.1" xmlns="http://www.w3.org/2000/svg" width="2048" height="275">
<path d="M0 0 C675.84 0 1351.68 0 2048 0 C2048 90.75 2048 181.5 2048 275 C1372.16 275 696.32 275 0 275 C0 184.25 0 93.5 0 0 Z " fill="#338994" transform="translate(0,0)"/>
<path d="M0 0 C58.00652712 -0.18298346 116.01303038 -0.32402863 174.0197886 -0.40852264 C180.86304643 -0.41850152 187.70630363 -0.42887393 194.54956055 -0.43945312 C195.57105226 -0.44102223 195.57105226 -0.44102223 196.61318016 -0.44262304 C218.69514391 -0.47672755 240.77694413 -0.53682809 262.85880877 -0.61037777 C286.18937572 -0.68794564 309.51982366 -0.73595979 332.85052997 -0.75270796 C346.83120416 -0.76370245 360.81140895 -0.7984665 374.7919387 -0.86333174 C384.36998429 -0.90551571 393.9477861 -0.9184244 403.52591791 -0.90801102 C409.05786252 -0.90287064 414.58898514 -0.91092494 420.12078476 -0.9536438 C425.18115816 -0.99243812 430.24015322 -0.99463285 435.3005887 -0.96719116 C437.13514807 -0.96379736 438.96979177 -0.97406479 440.80418392 -0.99906546 C454.53908858 -1.17543417 454.53908858 -1.17543417 458.14332354 1.72449589 C459.48395569 3.81056403 460.26341632 5.64217948 461 8 C461.598125 9.134375 462.19625 10.26875 462.8125 11.4375 C466.83848998 23.01222121 464.47655763 39.1335371 459.4375 49.9375 C454.38492062 59.42649055 447.8191475 67.66506576 440 75 C439.23300781 75.77859375 438.46601562 76.5571875 437.67578125 77.359375 C430.04006551 84.89476747 421.75246695 91.41874315 412.73046875 97.2109375 C409.58742646 99.27032716 406.64447876 101.51639538 403.71875 103.87109375 C402 105 402 105 399.84375 105.53515625 C399.2353125 105.68855469 398.626875 105.84195313 398 106 C397.67 106.66 397.34 107.32 397 108 C395.68 108 394.36 108 393 108 C393 108.66 393 109.32 393 110 C391.58603098 110.50757862 390.16868271 111.00574925 388.75 111.5 C387.96109375 111.7784375 387.1721875 112.056875 386.359375 112.34375 C384 113 384 113 380 113 C380 113.66 380 114.32 380 115 C346.85074263 126.30587255 304.1991183 123.62703644 271 114 C270.33605225 113.86883789 269.67210449 113.73767578 268.98803711 113.60253906 C264.13541238 112.35913719 262.19078916 110.3188698 259.61328125 106.046875 C258.48886276 103.96075848 257.38995913 101.86075363 256.3125 99.75 C255.09199634 97.4656912 253.87062322 95.18184678 252.6484375 92.8984375 C251.73529785 91.16352051 251.73529785 91.16352051 250.80371094 89.39355469 C248.11295645 84.33109023 245.27844844 79.35422237 242.4375 74.375 C241.36906044 72.48999761 240.3013534 70.60457984 239.234375 68.71875 C238.70521484 67.78417969 238.17605469 66.84960938 237.63085938 65.88671875 C235.9413398 62.89616794 234.2589946 59.90167028 232.578125 56.90625 C216.655047 26.1763666 216.655047 26.1763666 188 9 C172.00416031 5.69579782 156.71901143 8.17287062 143 17 C133.90857568 23.08467147 127.96412189 33.61805022 125 44 C124.38896616 47.43268691 123.89244405 50.84905552 123.4921875 54.3125 C123 57 123 57 121 59 C120.56244385 58.17387207 120.1248877 57.34774414 119.67407227 56.49658203 C118.01343708 53.37784412 116.34017325 50.26656175 114.65844727 47.15917969 C113.93891152 45.82365467 113.22422566 44.48550304 112.51489258 43.14453125 C104.19909314 27.44148101 94.22115214 15.30479758 77.02734375 9.3125 C66.10464698 6.28192517 52.50925033 6.76126903 42 11 C40.63776181 11.77769568 39.28303362 12.56874771 37.9375 13.375 C35.38263242 14.77384279 34.31702374 15.04603488 31.390625 14.62109375 C28.86120997 13.86446238 26.4444697 12.99428697 24 12 C23.01 11.67 22.02 11.34 21 11 C21 10.34 21 9.68 21 9 C20.154375 8.731875 19.30875 8.46375 18.4375 8.1875 C14.8708782 6.95539429 11.46467322 5.49339363 8 4 C5.34271696 2.97257949 2.67348085 1.98496663 0 1 C0 0.67 0 0.34 0 0 Z " fill="#296788" transform="translate(906,0)"/>
<path d="M0 0 C7.30132401 6.65637372 11.88715022 14.15400633 16.53125 22.82421875 C17.52109066 24.64390089 18.51458142 26.46156106 19.50810242 28.27923584 C20.17360118 29.4975444 20.83792209 30.71649711 21.50105286 31.93609619 C24.39482312 37.25508062 27.3832357 42.51544833 30.40625 47.76171875 C35.35312658 56.37378116 40.21791971 65.02988143 45.06274414 73.69970703 C48.97011711 80.68992694 52.89793026 87.66813428 56.84375 94.63671875 C61.38939701 102.66463876 65.90582797 110.70836445 70.40625 118.76171875 C74.78550355 126.59595216 79.19685523 134.41032407 83.65625 142.19921875 C84.14480469 143.05507568 84.63335938 143.91093262 85.13671875 144.79272461 C87.39982003 148.75506843 89.67534292 152.70876004 91.984375 156.64453125 C99.66959662 169.82610728 103.72611826 181.07682067 100.65234375 196.63671875 C96.89536258 209.96692809 89.52277042 221.0462589 77.41796875 228.109375 C66.00574604 233.76175649 53.27613889 235.07050644 41.15625 231.07421875 C26.15205949 225.18148386 17.58995217 213.47546609 10.21875 199.63671875 C9.57178989 198.44427279 8.92348743 197.25255426 8.27392578 196.06152344 C6.94239408 193.61831673 5.61593429 191.17246417 4.29296875 188.72460938 C1.32541801 183.24679053 -1.72922229 177.8177783 -4.78125 172.38671875 C-5.35625244 171.36078613 -5.93125488 170.33485352 -6.52368164 169.27783203 C-12.53887909 158.54774509 -18.59575203 147.84126234 -24.65625 137.13671875 C-31.93935461 124.27270805 -39.20331934 111.3986245 -46.41235352 98.49291992 C-49.30434691 93.31957703 -52.20986067 88.15485934 -55.1484375 83.0078125 C-60.05927464 74.40122686 -64.95599021 65.80542124 -69.40625 56.94921875 C-69.72964355 56.30782959 -70.05303711 55.66644043 -70.38623047 55.00561523 C-75.01981954 45.59050184 -75.29740461 32.91286366 -72.59375 22.76171875 C-67.37837999 8.6923485 -59.02777861 -0.39626041 -45.49609375 -6.67578125 C-29.85393041 -13.21665836 -13.54564058 -9.74206397 0 0 Z " fill="#1A8091" transform="translate(1108.65625,22.86328125)"/>
<path d="M0 0 C8.8886166 6.7997917 13.71118752 16.39772804 19 26 C20.15834961 28.08751964 21.31723581 30.17474159 22.4765625 32.26171875 C24.3826646 35.69515266 26.28738165 39.12931205 28.18554688 42.56713867 C32.39044932 50.17214945 36.71284593 57.70054502 41.125 65.1875 C46.36843455 74.09324928 51.36290595 83.10767474 56.2487793 92.21386719 C60.18830654 99.54338725 64.25971231 106.78532096 68.41064453 113.99682617 C72.92852447 121.85024726 77.3554851 129.75282501 81.76464844 137.66772461 C84.6187484 142.78231303 87.49735245 147.87860317 90.44921875 152.9375 C90.99513672 153.87658203 91.54105469 154.81566406 92.10351562 155.78320312 C93.12245465 157.53085317 94.1479794 159.27468887 95.18164062 161.01367188 C100.14486157 169.54094489 102.55788721 176.97076313 102.4375 186.875 C102.42614014 188.19153564 102.42614014 188.19153564 102.41455078 189.53466797 C102.24213407 196.3319138 101.193795 201.9317895 98 208 C97.5875 208.845625 97.175 209.69125 96.75 210.5625 C90.57217182 222.07572525 80.93714809 228.80531618 68.69140625 232.7421875 C56.92284711 235.80494977 45.74605502 233.9530901 34.9765625 228.45703125 C25.42190311 222.73732419 19.72827816 215.20924397 14.4375 205.5625 C13.6794104 204.20874268 13.6794104 204.20874268 12.90600586 202.82763672 C11.82353512 200.89242527 10.74527292 198.95485467 9.67089844 197.01513672 C7.98022024 193.96430741 6.27718992 190.92069883 4.5703125 187.87890625 C2.21101412 183.67400375 -0.1441831 179.46685144 -2.49609375 175.2578125 C-5.81243026 169.32813325 -9.15245786 163.41210503 -12.5 157.5 C-17.61742586 148.46064123 -22.69933205 139.40185659 -27.76953125 130.3359375 C-31.66158042 123.38030195 -35.57335452 116.43615755 -39.5 109.5 C-44.7049627 100.30536176 -49.88873692 91.09902586 -55.02880859 81.86791992 C-57.55430012 77.33651343 -60.08840251 72.81710427 -62.7421875 68.359375 C-70.79213356 54.76781098 -75.26267978 41.78212495 -71.875 26 C-68.29415378 13.18521237 -61.13068084 3.2455414 -49.5 -3.375 C-47.68152094 -4.28046675 -45.84870458 -5.15796229 -44 -6 C-43.27167969 -6.3403125 -42.54335938 -6.680625 -41.79296875 -7.03125 C-27.51762547 -12.75198126 -12.23286287 -8.11326641 0 0 Z " fill="#218693" transform="translate(995,22)"/>
<path d="M0 0 C11.35368809 8.41449369 17.0496224 21.05557504 23.43530273 33.31201172 C25.06482083 36.11135549 26.91862254 38.52325355 29 41 C29.12955078 39.80117187 29.12955078 39.80117187 29.26171875 38.578125 C31.03777388 24.69556561 35.94484502 12.26203203 46.5390625 2.7109375 C59.50376006 -7.2647808 72.92355494 -10.09612125 89 -9 C101.65049884 -7.13184494 112.51668053 -1.65388603 121 8 C126.04570601 15.2774606 130.34613175 23.00669841 134.625 30.75 C135.85505474 32.96116786 137.08553289 35.17210023 138.31640625 37.3828125 C139.23897217 39.04231934 139.23897217 39.04231934 140.18017578 40.73535156 C142.95342827 45.71038942 145.75627062 50.66850963 148.5625 55.625 C149.09512451 56.56649902 149.62774902 57.50799805 150.17651367 58.47802734 C151.78387217 61.31895136 153.39183673 64.15953147 155 67 C157.14648595 70.79129777 159.29236927 74.58293527 161.4375 78.375 C161.97197754 79.31947998 162.50645508 80.26395996 163.05712891 81.23706055 C165.86476317 86.20360495 168.66008636 91.17664233 171.4375 96.16015625 C177.21364302 106.52180995 183.04643838 116.837953 189.0625 127.0625 C193.8526214 135.21585523 198.4959607 143.4350007 203 151.75 C203.51570557 152.70140869 204.03141113 153.65281738 204.56274414 154.63305664 C206.05812157 157.41373324 207.53175624 160.20491326 209 163 C209.54011719 164.00740234 210.08023437 165.01480469 210.63671875 166.05273438 C217.90229917 179.95937196 219.36144343 195.22525024 215.4375 210.5 C211.03102729 223.73482537 202.51720204 234.62054761 190 240.9375 C177.2061643 246.98877521 162.09477996 248.42882138 148.4765625 243.96484375 C130.18106795 236.83710376 121.29015127 223.52926842 112.0625 206.875 C111.47404297 205.823125 110.88558594 204.77125 110.27929688 203.6875 C108.84808762 201.12761353 107.42176392 198.5651405 106 196 C105.67128906 197.63195312 105.67128906 197.63195312 105.3359375 199.296875 C101.96558457 215.24550889 96.35199673 228.55246209 82.625 238.375 C69.57618584 246.45610771 53.48207785 248.18522704 38.625 244.875 C22.49476789 240.13081409 13.0455437 230.29076688 5 216 C4.24220863 214.68283159 3.48306526 213.36644021 2.72265625 212.05078125 C0.79716281 208.71047778 -1.10667724 205.35863373 -3 202 C-3.21914063 202.94359375 -3.43828125 203.8871875 -3.6640625 204.859375 C-7.20566838 219.45965957 -12.40615408 232.15182871 -25.3125 240.75 C-39.49418921 249.29412638 -54.61597829 251.06815654 -70.8828125 248.3515625 C-83.46483978 244.80434035 -94.07319089 237.32962025 -101.1875 226.375 C-109.02911562 212.31054732 -110.72942158 195.44482807 -106.4375 179.875 C-101.83920977 167.47403611 -93.85516575 157.45138153 -82.125 151.125 C-66.82611116 144.28076026 -50.87712656 144.23686203 -35 149 C-34.34 149 -33.68 149 -33 149 C-39.32142454 137.30062185 -45.719629 125.65470035 -52.34765625 114.12597656 C-56.97933384 106.06264695 -61.53081582 97.95548066 -66.04785156 89.82739258 C-69.69416289 83.27654867 -69.69416289 83.27654867 -73.5234375 76.83203125 C-82.64615747 61.92521384 -85.22354523 46.3793974 -81.9375 29.3125 C-78.32994293 15.7715765 -70.82199041 5.12142493 -59 -2.375 C-40.83343433 -12.57426938 -17.19224928 -11.85072675 0 0 Z M-61 8 C-61.63679687 8.50015625 -62.27359375 9.0003125 -62.9296875 9.515625 C-70.58095315 16.24873877 -76.00838788 27.90358573 -77 38 C-77.08121094 38.825 -77.16242187 39.65 -77.24609375 40.5 C-78.0533284 57.32961945 -69.03655201 70.96015541 -61 85 C-59.9371789 86.88189671 -58.87596619 88.76470274 -57.81640625 90.6484375 C-55.66853405 94.46368907 -53.51313392 98.27452495 -51.3515625 102.08203125 C-47.87698238 108.20794248 -44.43659932 114.35272295 -41 120.5 C-34.36982081 132.35406778 -27.69169874 144.18057837 -21 156 C-18.85351405 159.79129777 -16.70762086 163.58292968 -14.5625 167.375 C-14.03092285 168.3144043 -13.4993457 169.25380859 -12.95166016 170.22167969 C-9.48562947 176.35316615 -6.04392197 182.49781994 -2.61328125 188.64916992 C0.24669282 193.7723854 3.11989598 198.88807783 6 204 C6.48662109 204.86544434 6.97324219 205.73088867 7.47460938 206.62255859 C15.85571956 221.46090636 23.542877 232.69785623 40.5 238.4375 C52.19676309 241.64133594 63.84804948 240.39246061 74.6875 234.8125 C83.38734788 229.51694042 89.4863649 223.12330498 94 214 C94.41378906 213.21496094 94.82757812 212.42992187 95.25390625 211.62109375 C99.84498078 201.39915429 99.96234771 187.32771302 96.375 176.75 C92.54876458 168.28688606 87.50384106 160.36682783 82.7578125 152.3984375 C79.13530541 146.28650336 75.7271027 140.07591989 72.375 133.8125 C67.90031212 125.46954181 63.31208629 117.20807724 58.58935547 109.00317383 C54.67418589 102.19744289 50.82704628 95.35563653 47 88.5 C42.23053657 79.9602715 37.41499462 71.44944001 32.5456543 62.96630859 C29.20200541 57.13115031 25.90860288 51.26953727 22.63549805 45.39453125 C20.28910162 41.18628952 17.93091042 36.9847737 15.56738281 32.78613281 C14.59229134 31.05283938 13.61980618 29.3180738 12.65136719 27.58105469 C4.66560411 13.313924 -4.68840158 2.58368063 -20.9375 -2.4375 C-36.16737801 -5.2910982 -49.13404212 -1.67468343 -61 8 Z M45.5625 13.765625 C38.96347025 23.20223754 35.65331156 32.21497335 35.5625 43.6875 C35.52962891 44.40099609 35.49675781 45.11449219 35.46289062 45.84960938 C35.34720317 57.82851913 42.16518958 68.66591563 47.9375 78.75 C48.60101656 79.92376197 49.26367733 81.09800808 49.92553711 82.27270508 C51.28190977 84.67778224 52.64268914 87.08028145 54.00683594 89.48095703 C55.88979181 92.79895248 57.74875989 96.12990159 59.6015625 99.46484375 C65.30891215 109.73278409 71.10654052 119.93662676 77.0625 130.0625 C82.32412367 139.01084954 87.34090636 148.06673962 92.24853516 157.21337891 C96.18422226 164.53583777 100.24917062 171.77231261 104.3996582 178.97485352 C107.17301337 183.79158937 109.9144434 188.62368483 112.6171875 193.48046875 C113.23215088 194.58527588 113.84711426 195.69008301 114.48071289 196.82836914 C115.66234595 198.95493068 116.84141299 201.08292104 118.01733398 203.21264648 C127.28557454 219.88128993 135.89406432 233.41229877 154.859375 239.2734375 C165.82626354 241.8105535 178.12677631 239.75736006 188 234.34765625 C199.47434245 226.61592159 205.98698522 217.06802248 210 204 C210.29003906 203.06607422 210.29003906 203.06607422 210.5859375 202.11328125 C211.18327318 199.0646152 211.25104553 196.10506818 211.3125 193 C211.36857422 191.1746875 211.36857422 191.1746875 211.42578125 189.3125 C210.8950292 179.04263339 205.61642768 169.86731399 200.5625 161.1875 C199.94632813 160.10855469 199.33015625 159.02960938 198.6953125 157.91796875 C197.42228365 155.68951744 196.14510087 153.46343395 194.86376953 151.23974609 C192.04670522 146.34291044 189.27508031 141.42070368 186.5 136.5 C185.42845087 134.60673379 184.35683577 132.71350491 183.28515625 130.8203125 C179.8160799 124.68295651 176.37660352 118.52918524 172.9375 112.375 C168.66298877 104.72785243 164.35827752 97.09971915 160 89.5 C155.64172071 81.90027775 151.33727618 74.27200167 147.0625 66.625 C140.41031955 54.72978945 133.75596784 42.83667537 127 31 C126.35224609 29.85821289 126.35224609 29.85821289 125.69140625 28.69335938 C116.86034983 13.18963572 108.07559954 2.65221627 90.2890625 -2.3046875 C73.74727325 -5.80164532 56.19873928 0.57259744 45.5625 13.765625 Z " fill="#F4F9F9" transform="translate(999,16)"/>
<path d="M0 0 C71.61 0 143.22 0 217 0 C216.2817669 4.3093986 215.69268808 7.16324035 214 11 C213.34 11 212.68 11 212 11 C211.88398437 11.73347656 211.76796875 12.46695312 211.6484375 13.22265625 C210.9932248 16.02901909 210.07910373 17.96552366 208.625 20.4375 C207.13291188 23.02292855 205.71129171 25.57741658 204.375 28.25 C202.04964209 32.90071582 199.72429666 36.37915603 196 40 C192.79726274 43.55435042 189.66756587 47.1541895 186.703125 50.91015625 C183.89419968 54.28490443 180.66560226 56.9046871 177.1875 59.5625 C176.25284912 60.28191772 176.25284912 60.28191772 175.29931641 61.01586914 C167.11547554 67.25986031 159.89385346 70.95389239 150 74 C148.99864014 74.38273071 148.99864014 74.38273071 147.97705078 74.77319336 C142.11925526 76.95324355 136.97290955 77.43743961 130.75 77.3125 C129.37400635 77.29775635 129.37400635 77.29775635 127.97021484 77.28271484 C118.38457138 77.10223555 109.14965875 75.97895866 100 73 C100 72.34 100 71.68 100 71 C98.8553125 70.9071875 98.8553125 70.9071875 97.6875 70.8125 C92.40451956 69.64845346 87.83724997 67.38272097 83 65 C82.17886719 64.60167969 81.35773438 64.20335938 80.51171875 63.79296875 C68.26944928 57.49096067 56.85824866 49.13526932 46.06640625 40.62402344 C43.93869252 38.95181742 41.78508592 37.31758493 39.625 35.6875 C34.14246654 31.42968606 29.10506465 26.69665948 24 22 C20.23126944 18.58768178 16.49164919 15.27793589 12.3125 12.375 C7.33321711 8.91213508 3.79183637 4.73979546 0 0 Z " fill="#276085" transform="translate(1462,0)"/>
<path d="M0 0 C9.72801483 7.91815161 15.92420237 19.35766564 17.31640625 31.8359375 C17.83548196 44.59515326 13.10947249 57.94147945 4.55859375 67.53125 C-6.13380168 77.60729181 -18.80337802 81.42438935 -33.234375 81.2734375 C-45.89331468 80.35421989 -55.70256488 74.77933447 -64.3125 65.6875 C-73.7376572 54.51059641 -75.90954172 42.31249647 -75.19091797 28.13085938 C-74.12938454 16.28295171 -66.21584812 6.17397253 -57.38671875 -1.24609375 C-39.92981756 -14.07448759 -17.21619547 -12.7275819 0 0 Z " fill="#167C90" transform="translate(972,178)"/>
<path d="M0 0 C0.99 0.33 1.98 0.66 3 1 C2.38125 1.7425 1.7625 2.485 1.125 3.25 C-0.60437281 5.48801188 -1.86106661 7.43739987 -3 10 C-3.33 9.34 -3.66 8.68 -4 8 C-3.22265625 6.0546875 -3.22265625 6.0546875 -2.0625 3.875 C-1.49208984 2.78832031 -1.49208984 2.78832031 -0.91015625 1.6796875 C-0.60980469 1.12539063 -0.30945312 0.57109375 0 0 Z " fill="#2D748D" transform="translate(1928,0)"/>
</svg>
